<svg width="1108" height="769" viewBox="0 0 1108 769" fill="none" xmlns="http://www.w3.org/2000/svg">
<g clip-path="url(#clip0)">
<path d="M210.203 165.086C245.152 165.086 273.484 136.761 273.484 101.82C273.484 66.8786 245.152 38.5532 210.203 38.5532C175.254 38.5532 146.922 66.8786 146.922 101.82C146.922 136.761 175.254 165.086 210.203 165.086Z" fill="#FF6584"/>
<path d="M518.088 339.189C518.088 488.47 429.323 540.593 319.826 540.593C210.329 540.593 121.563 488.47 121.563 339.189C121.563 189.908 319.826 0 319.826 0C319.826 0 518.088 189.908 518.088 339.189Z" fill="#F2F2F2"/>
<path d="M312.603 517.758L314.634 392.824L399.138 238.262L314.953 373.225L315.865 317.049L374.105 205.226L316.107 302.183L317.748 201.149L380.113 112.123L318.007 185.261L319.032 0L312.586 245.253L313.116 235.135L249.709 138.103L312.099 254.557L306.191 367.394L306.015 364.4L232.918 262.288L305.794 374.98L305.055 389.092L304.923 389.304L304.983 390.463L289.994 676.743H310.021L312.423 528.873L385.119 416.457L312.603 517.758Z" fill="#3F3D56"/>
<path d="M1108 400.33C1108 522.523 1035.34 565.189 945.712 565.189C856.084 565.189 783.425 522.523 783.425 400.33C783.425 278.137 945.712 122.688 945.712 122.688C945.712 122.688 1108 278.137 1108 400.33Z" fill="#F2F2F2"/>
<path d="M939.801 546.497L941.463 444.233L1010.63 317.716L941.724 428.19L942.471 382.208L990.143 290.674L942.669 370.039L944.013 287.338L995.061 214.465L944.223 274.333L945.064 122.688L939.787 323.438L940.221 315.157L888.319 235.731L939.388 331.055L934.552 423.418L934.408 420.966L874.575 337.382L934.227 429.627L933.622 441.178L933.514 441.352L933.563 442.3L921.294 676.633H937.687L939.653 555.595L999.159 463.577L939.801 546.497Z" fill="#3F3D56"/>
<path d="M548.36 700.393C851.211 700.393 1096.72 687.985 1096.72 672.68C1096.72 657.374 851.211 644.967 548.36 644.967C245.509 644.967 0 657.374 0 672.68C0 687.985 245.509 700.393 548.36 700.393Z" fill="#3F3D56"/>
<path d="M882.416 723.213C934.287 723.213 976.337 721.088 976.337 718.467C976.337 715.845 934.287 713.72 882.416 713.72C830.545 713.72 788.495 715.845 788.495 718.467C788.495 721.088 830.545 723.213 882.416 723.213Z" fill="#3F3D56"/>
<path d="M542.553 769C594.425 769 636.475 766.875 636.475 764.253C636.475 761.632 594.425 759.507 542.553 759.507C490.682 759.507 448.632 761.632 448.632 764.253C448.632 766.875 490.682 769 542.553 769Z" fill="#3F3D56"/>
<path d="M284.709 736.707C403.215 736.707 499.284 731.852 499.284 725.863C499.284 719.874 403.215 715.019 284.709 715.019C166.202 715.019 70.1328 719.874 70.1328 725.863C70.1328 731.852 166.202 736.707 284.709 736.707Z" fill="#3F3D56"/>
<path d="M95.9926 637.874C139.133 637.874 174.105 602.91 174.105 559.78C174.105 516.649 139.133 481.685 95.9926 481.685C52.8524 481.685 17.8804 516.649 17.8804 559.78C17.8804 602.91 52.8524 637.874 95.9926 637.874Z" fill="#2F2E41"/>
<path d="M83.4064 620.925L59.6777 620.646L59.1768 663.15L82.9055 663.429L83.4064 620.925Z" fill="#2F2E41"/>
<path d="M130.863 621.484L107.135 621.205L106.634 663.709L130.362 663.988L130.863 621.484Z" fill="#2F2E41"/>
<path d="M98.7181 664.11C98.7664 660.016 89.9525 656.592 79.0316 656.463C68.1108 656.335 59.2186 659.55 59.1704 663.644C59.1221 667.738 67.9361 671.162 78.8569 671.291C89.7777 671.419 98.6699 668.204 98.7181 664.11Z" fill="#2F2E41"/>
<path d="M146.187 663.68C146.236 659.586 137.422 656.163 126.501 656.034C115.58 655.905 106.688 659.12 106.64 663.214C106.591 667.309 115.405 670.732 126.326 670.861C137.247 670.99 146.139 667.775 146.187 663.68Z" fill="#2F2E41"/>
<path d="M98.2034 566.724C112.948 566.724 124.9 554.774 124.9 540.034C124.9 525.293 112.948 513.343 98.2034 513.343C83.4593 513.343 71.5068 525.293 71.5068 540.034C71.5068 554.774 83.4593 566.724 98.2034 566.724Z" fill="white"/>
<path d="M98.2031 548.93C103.118 548.93 107.102 544.947 107.102 540.034C107.102 535.12 103.118 531.137 98.2031 531.137C93.2884 531.137 89.3042 535.12 89.3042 540.034C89.3042 544.947 93.2884 548.93 98.2031 548.93Z" fill="#3F3D56"/>
<path d="M21.0823 486.266C15.1084 457.954 35.6049 429.658 66.8625 423.065C98.1202 416.473 128.302 434.081 134.276 462.393C140.25 490.706 119.466 500.877 88.2087 507.469C56.951 514.062 27.0563 514.579 21.0823 486.266Z" fill="#6C63FF"/>
<path d="M215.147 603.347C215.147 657.791 182.775 676.801 142.839 676.801C141.913 676.801 140.99 676.791 140.067 676.771C138.217 676.731 136.384 676.643 134.574 676.519C98.532 673.969 70.5303 653.981 70.5303 603.347C70.5303 550.946 137.508 484.825 142.539 479.931L142.548 479.923C142.742 479.733 142.839 479.641 142.839 479.641C142.839 479.641 215.147 548.902 215.147 603.347Z" fill="#6C63FF"/>
<path d="M140.205 668.472L166.651 631.527L140.138 672.529L140.068 676.771C138.218 676.731 136.385 676.643 134.574 676.519L137.425 622.048L137.403 621.626L137.451 621.546L137.72 616.402L111.141 575.299L137.803 612.543L137.865 613.636L140.019 572.48L117.265 530.007L140.297 565.256L142.539 479.931L142.548 479.641V479.923L142.174 547.206L164.827 520.532L142.081 553.003L141.482 589.851L162.633 554.487L141.394 595.273L141.059 615.759L171.766 566.538L140.945 622.907L140.205 668.472Z" fill="#3F3D56"/>
<path d="M923.283 645.419C966.423 645.419 1001.39 610.455 1001.39 567.324C1001.39 524.194 966.423 489.229 923.283 489.229C880.142 489.229 845.17 524.194 845.17 567.324C845.17 610.455 880.142 645.419 923.283 645.419Z" fill="#2F2E41"/>
<path d="M929.95 629.394L907.267 636.364L919.757 676.995L942.44 670.026L929.95 629.394Z" fill="#2F2E41"/>
<path d="M975.316 615.46L952.632 622.429L965.122 663.061L987.805 656.091L975.316 615.46Z" fill="#2F2E41"/>
<path d="M940.983 678.747C951.423 675.539 958.911 669.766 957.708 665.852C956.504 661.938 947.066 661.365 936.626 664.573C926.187 667.78 918.699 673.554 919.902 677.468C921.105 681.382 930.544 681.954 940.983 678.747Z" fill="#2F2E41"/>
<path d="M986.059 663.862C996.499 660.655 1003.99 654.882 1002.78 650.968C1001.58 647.054 992.142 646.481 981.702 649.689C971.262 652.896 963.775 658.67 964.978 662.584C966.181 666.497 975.619 667.07 986.059 663.862Z" fill="#2F2E41"/>
<path d="M919.364 574.535C934.108 574.535 946.06 562.586 946.06 547.845C946.06 533.104 934.108 521.154 919.364 521.154C904.619 521.154 892.667 533.104 892.667 547.845C892.667 562.586 904.619 574.535 919.364 574.535Z" fill="white"/>
<path d="M919.364 556.742C924.279 556.742 928.263 552.758 928.263 547.845C928.263 542.931 924.279 538.948 919.364 538.948C914.45 538.948 910.465 542.931 910.465 547.845C910.465 552.758 914.45 556.742 919.364 556.742Z" fill="#3F3D56"/>
<path d="M829.515 520.157C815.189 495.015 826.076 461.817 853.833 446.007C881.59 430.197 915.706 437.762 930.032 462.904C944.359 488.046 927.669 504.07 899.912 519.88C872.154 535.69 843.842 545.298 829.515 520.157Z" fill="#6C63FF"/>
<path d="M933.751 611.73C936.653 605.613 923.206 593.163 903.717 583.922C884.228 574.68 866.076 572.148 863.175 578.265C860.273 584.381 873.72 596.832 893.209 606.073C912.698 615.314 930.849 617.847 933.751 611.73Z" fill="#2F2E41"/>
<path d="M108.247 598.536C110.767 592.252 96.5781 580.654 76.5564 572.631C56.5347 564.608 38.2616 563.198 35.7423 569.482C33.223 575.766 47.4115 587.364 67.4332 595.387C87.4549 603.41 105.728 604.82 108.247 598.536Z" fill="#2F2E41"/>
<path d="M1048.43 610.288C1048.43 664.733 1016.06 683.743 976.126 683.743C975.2 683.743 974.277 683.733 973.355 683.712C971.504 683.673 969.671 683.584 967.861 683.461C931.819 680.911 903.817 660.923 903.817 610.288C903.817 557.887 970.795 491.766 975.826 486.873L975.835 486.864C976.029 486.675 976.126 486.582 976.126 486.582C976.126 486.582 1048.43 555.844 1048.43 610.288Z" fill="#6C63FF"/>
<path d="M973.491 675.414L999.937 638.469L973.425 679.471L973.355 683.712C971.504 683.673 969.671 683.585 967.861 683.461L970.711 628.99L970.689 628.567L970.738 628.488L971.006 623.343L944.428 582.24L971.09 619.485L971.152 620.577L973.306 579.421L950.552 536.948L973.584 572.198L975.826 486.873L975.835 486.582V486.864L975.46 554.148L998.114 527.474L975.368 559.944L974.769 596.793L995.92 561.429L974.681 602.215L974.346 622.7L1005.05 573.48L974.231 629.849L973.491 675.414Z" fill="#3F3D56"/>
<g clip-path="url(#clip1)">
<path d="M592.766 678.391C711.156 678.391 807.131 672.046 807.131 664.218C807.131 656.39 711.156 650.045 592.766 650.045C474.376 650.045 378.401 656.39 378.401 664.218C378.401 672.046 474.376 678.391 592.766 678.391Z" fill="#F2F2F2"/>
<path d="M584.55 509.06C549.624 509.06 524.548 531.438 524.548 583.655C524.548 642.834 549.624 658.499 584.55 658.499C619.476 658.499 646.046 641.342 646.046 583.655C646.046 521.989 619.476 509.06 584.55 509.06ZM584.78 638.856C560.589 638.856 547.951 624.682 547.951 583.693C547.951 547.527 561.107 528.454 585.297 528.454C609.487 528.454 622.643 540.982 622.643 583.693C622.643 623.649 608.97 638.856 584.78 638.856Z" fill="#2F2E41"/>
<path d="M503.634 617.223H489.194V574.754C489.194 572.499 488.297 570.335 486.7 568.74C485.103 567.145 482.936 566.249 480.678 566.249H477.294C476.176 566.249 475.068 566.469 474.035 566.897C473.002 567.324 472.063 567.951 471.272 568.74C470.482 569.53 469.854 570.468 469.426 571.5C468.998 572.532 468.778 573.638 468.778 574.754V617.223H428.047C427.209 617.223 426.385 617.007 425.656 616.595C424.926 616.183 424.315 615.59 423.883 614.874C423.45 614.157 423.211 613.341 423.187 612.504C423.164 611.668 423.357 610.839 423.748 610.099L466.858 528.612C467.395 527.596 467.721 526.481 467.816 525.336C467.91 524.191 467.771 523.039 467.407 521.949C467.043 520.859 466.462 519.853 465.699 518.994C464.935 518.134 464.005 517.438 462.965 516.948L460.42 515.747C458.444 514.816 456.185 514.678 454.11 515.363C452.035 516.048 450.303 517.504 449.273 519.429L396.695 617.659C395.8 619.332 395.332 621.199 395.332 623.096C395.332 624.61 395.63 626.11 396.211 627.509C396.791 628.908 397.641 630.18 398.714 631.251C399.786 632.321 401.059 633.171 402.46 633.751C403.861 634.33 405.363 634.628 406.879 634.628H468.778V661.483C468.778 662.822 469.042 664.147 469.555 665.384C470.068 666.621 470.82 667.745 471.768 668.691C472.716 669.638 473.841 670.389 475.08 670.901C476.318 671.414 477.646 671.677 478.986 671.677H478.986C480.327 671.677 481.654 671.414 482.892 670.901C484.131 670.389 485.256 669.638 486.204 668.691C487.152 667.745 487.904 666.621 488.417 665.384C488.93 664.147 489.194 662.822 489.194 661.483V634.628H503.634C505.945 634.628 508.162 633.712 509.796 632.079C511.43 630.447 512.348 628.234 512.348 625.926C512.348 623.618 511.43 621.404 509.796 619.772C508.162 618.14 505.945 617.223 503.634 617.223Z" fill="#6C63FF"/>
<path d="M771.03 617.223H756.589V574.754C756.589 572.499 755.692 570.335 754.095 568.74C752.498 567.145 750.332 566.249 748.073 566.249H744.69C743.571 566.249 742.464 566.469 741.431 566.897C740.398 567.324 739.459 567.951 738.668 568.74C737.877 569.53 737.25 570.468 736.822 571.5C736.394 572.532 736.174 573.638 736.174 574.754V617.223H695.442C694.604 617.223 693.781 617.007 693.051 616.595C692.322 616.183 691.711 615.59 691.278 614.874C690.846 614.157 690.606 613.341 690.583 612.504C690.559 611.668 690.752 610.839 691.144 610.099L734.253 528.612C734.791 527.596 735.117 526.481 735.211 525.336C735.305 524.191 735.167 523.039 734.803 521.949C734.439 520.859 733.858 519.853 733.094 518.994C732.331 518.134 731.401 517.438 730.36 516.948L727.815 515.747C725.839 514.816 723.58 514.678 721.505 515.363C719.431 516.048 717.699 517.504 716.669 519.429L664.091 617.659C663.195 619.332 662.727 621.199 662.727 623.096C662.727 626.154 663.944 629.088 666.109 631.251C668.275 633.413 671.212 634.628 674.275 634.628H736.174V661.483C736.174 664.187 737.249 666.78 739.164 668.691C741.078 670.603 743.674 671.677 746.382 671.677C749.089 671.677 751.685 670.603 753.6 668.691C755.514 666.78 756.589 664.187 756.589 661.483V634.628H771.03C773.341 634.628 775.557 633.712 777.191 632.079C778.826 630.447 779.744 628.234 779.744 625.926C779.744 623.618 778.826 621.404 777.191 619.772C775.557 618.14 773.341 617.223 771.03 617.223Z" fill="#6C63FF"/>
<path d="M507.618 612.25H493.177V569.781C493.177 568.665 492.957 567.559 492.529 566.527C492.101 565.495 491.474 564.557 490.683 563.768C489.892 562.978 488.953 562.351 487.92 561.924C486.887 561.496 485.78 561.276 484.661 561.276H481.278C479.019 561.276 476.853 562.173 475.256 563.768C473.659 565.363 472.762 567.526 472.762 569.781V612.25H432.03C431.192 612.25 430.369 612.034 429.639 611.622C428.909 611.21 428.299 610.617 427.866 609.901C427.434 609.184 427.194 608.368 427.171 607.531C427.147 606.695 427.34 605.866 427.732 605.126L470.841 523.639C471.379 522.623 471.705 521.508 471.799 520.363C471.893 519.218 471.754 518.066 471.391 516.976C471.027 515.886 470.446 514.881 469.682 514.021C468.918 513.162 467.988 512.465 466.948 511.975L464.403 510.775C462.427 509.843 460.168 509.705 458.093 510.39C456.018 511.075 454.287 512.531 453.257 514.456L400.679 612.686C399.783 614.359 399.315 616.226 399.315 618.123V618.123C399.315 621.181 400.532 624.115 402.697 626.278C404.863 628.44 407.8 629.656 410.863 629.656H472.762V656.51C472.762 657.849 473.026 659.174 473.539 660.411C474.052 661.648 474.803 662.772 475.751 663.719C476.699 664.665 477.825 665.416 479.063 665.929C480.301 666.441 481.629 666.705 482.969 666.705H482.969C485.677 666.705 488.273 665.63 490.187 663.719C492.102 661.807 493.177 659.214 493.177 656.51V629.656H507.618C508.762 629.656 509.895 629.43 510.952 628.993C512.01 628.556 512.97 627.915 513.779 627.107C514.588 626.298 515.23 625.339 515.668 624.283C516.106 623.227 516.332 622.096 516.332 620.953V620.953C516.332 619.81 516.106 618.678 515.668 617.622C515.23 616.566 514.589 615.607 513.779 614.799C512.97 613.991 512.01 613.35 510.952 612.912C509.895 612.475 508.762 612.25 507.618 612.25V612.25Z" stroke="#3F3D56" stroke-miterlimit="10"/>
<path d="M778.499 612.25H764.059V569.781C764.059 567.526 763.161 565.363 761.564 563.768C759.967 562.173 757.801 561.276 755.543 561.276H752.159C751.041 561.276 749.933 561.496 748.9 561.924C747.867 562.351 746.928 562.978 746.137 563.768C745.346 564.557 744.719 565.495 744.291 566.527C743.863 567.559 743.643 568.665 743.643 569.781V612.25H702.912C702.074 612.25 701.25 612.034 700.52 611.622C699.791 611.21 699.18 610.617 698.748 609.901C698.315 609.184 698.075 608.368 698.052 607.531C698.028 606.695 698.222 605.866 698.613 605.126L741.723 523.639C742.26 522.623 742.586 521.508 742.68 520.363C742.775 519.218 742.636 518.066 742.272 516.976C741.908 515.886 741.327 514.881 740.563 514.021C739.8 513.162 738.87 512.465 737.829 511.975L735.285 510.775C733.308 509.843 731.049 509.705 728.975 510.39C726.9 511.075 725.168 512.531 724.138 514.456L671.56 612.686C670.665 614.359 670.196 616.226 670.196 618.123C670.196 621.181 671.413 624.115 673.578 626.278C675.744 628.44 678.681 629.656 681.744 629.656H743.643V656.51C743.643 659.214 744.718 661.807 746.633 663.719C748.547 665.63 751.143 666.705 753.851 666.705V666.705C756.558 666.705 759.154 665.63 761.069 663.719C762.983 661.807 764.059 659.214 764.059 656.51V629.656H778.499C779.643 629.656 780.776 629.43 781.834 628.993C782.891 628.556 783.851 627.915 784.661 627.107C785.47 626.298 786.112 625.339 786.55 624.283C786.987 623.227 787.213 622.096 787.213 620.953V620.953C787.213 618.645 786.295 616.431 784.661 614.799C783.026 613.167 780.81 612.25 778.499 612.25V612.25Z" stroke="#3F3D56" stroke-miterlimit="10"/>
<path d="M592.517 504.584C557.591 504.584 532.515 526.963 532.515 579.179C532.515 638.358 557.591 654.023 592.517 654.023C627.443 654.023 654.013 636.866 654.013 579.179C654.013 517.514 627.443 504.584 592.517 504.584ZM592.746 634.38C568.556 634.38 555.918 620.206 555.918 579.218C555.918 543.051 569.073 523.979 593.264 523.979C617.454 523.979 630.61 536.507 630.61 579.218C630.61 619.173 616.937 634.38 592.746 634.38V634.38Z" stroke="#3F3D56" stroke-miterlimit="10"/>
<path d="M564.522 453.921C567.417 453.921 569.764 451.577 569.764 448.685C569.764 445.793 567.417 443.449 564.522 443.449C561.626 443.449 559.279 445.793 559.279 448.685C559.279 451.577 561.626 453.921 564.522 453.921Z" fill="#2F2E41"/>
<path d="M577.309 479.335C585.43 479.335 592.014 470.815 592.014 460.306C592.014 449.797 585.43 441.278 577.309 441.278C569.187 441.278 562.604 449.797 562.604 460.306C562.604 470.815 569.187 479.335 577.309 479.335Z" fill="#2F2E41"/>
<path opacity="0.1" d="M577.309 473.588C569.942 473.588 563.841 466.579 562.77 457.433C562.659 458.387 562.603 459.346 562.604 460.306C562.604 470.815 569.187 479.335 577.309 479.335C585.43 479.335 592.014 470.815 592.014 460.306C592.014 459.346 591.959 458.387 591.847 457.433C590.777 466.579 584.675 473.588 577.309 473.588Z" fill="black"/>
<path d="M607.232 516.032C606.917 517.328 605.555 518.366 604.047 519.091C600.876 520.616 596.966 521.071 593.172 521.224C592.205 521.282 591.234 521.264 590.269 521.17C588.399 520.989 586.645 520.184 585.291 518.884C585.194 518.821 585.115 518.735 585.06 518.633C585.006 518.532 584.979 518.418 584.981 518.302C584.982 518.187 585.013 518.074 585.071 517.974C585.128 517.874 585.21 517.79 585.308 517.73C587.328 515.515 590.698 514.156 594.093 513.178C596.667 512.436 601.156 510.515 603.964 510.775C606.683 511.026 607.631 514.395 607.232 516.032Z" fill="#3F3D56"/>
<path opacity="0.1" d="M607.232 516.032C606.917 517.328 605.555 518.366 604.047 519.091C600.876 520.616 596.966 521.071 593.172 521.224C592.205 521.282 591.234 521.264 590.269 521.17C588.399 520.989 586.645 520.184 585.291 518.884C585.194 518.821 585.115 518.735 585.06 518.633C585.006 518.532 584.979 518.418 584.981 518.302C584.982 518.187 585.013 518.074 585.071 517.974C585.128 517.874 585.21 517.79 585.308 517.73C587.328 515.515 590.698 514.156 594.093 513.178C596.667 512.436 601.156 510.515 603.964 510.775C606.683 511.026 607.631 514.395 607.232 516.032Z" fill="black"/>
<path d="M566.92 506.345C565.952 508.24 565.777 510.44 566.433 512.463C567.1 514.471 568.349 516.236 570.021 517.535C574.123 520.819 579.769 521.271 585.027 521.226C589.634 521.186 594.235 520.871 598.805 520.282C600.336 520.147 601.841 519.798 603.276 519.246C604.992 518.504 606.499 517.144 607.11 515.38C607.721 513.615 607.288 511.454 605.837 510.276C604.562 509.242 602.804 509.099 601.164 509.001L591.782 508.438C592.709 507.501 593.943 506.971 595.072 506.29C596.57 505.386 597.565 503.869 598.653 502.501C600.331 500.499 602.157 498.624 604.115 496.894C604.42 498.643 605.528 500.08 606.832 501.287C608.136 502.494 609.64 503.465 610.995 504.615C614.278 507.398 616.642 511.176 620.095 513.747C622.47 513.123 624.69 512.016 626.617 510.495L625.275 508.067C625.163 507.817 624.989 507.6 624.769 507.437C624.389 507.204 623.899 507.324 623.458 507.258C622.279 507.081 621.765 505.722 621.302 504.625C620.032 501.613 617.601 499.276 615.524 496.75C613.992 494.885 612.632 492.885 611.462 490.774C610.765 489.516 610.126 488.205 609.179 487.12C608.233 486.036 606.906 485.183 605.466 485.18C604.193 485.177 603.019 485.823 601.924 486.472C598.591 488.449 595.384 490.632 592.322 493.006C590.719 494.249 589.126 495.561 587.246 496.323C586.455 496.644 585.621 496.863 584.861 497.254C583.531 497.937 582.521 499.094 581.435 500.121C577.559 503.783 572.252 506.155 566.92 506.345Z" fill="#3F3D56"/>
<path d="M586.539 480.28C586.495 481.399 586.257 482.502 585.834 483.54C585.62 484.058 585.301 484.526 584.898 484.915C584.495 485.304 584.015 485.606 583.49 485.802C582.744 486.001 581.962 486.027 581.205 485.876C580.545 485.807 579.908 485.59 579.343 485.242C578.464 484.638 578.025 483.56 577.865 482.506C577.705 481.452 577.777 480.375 577.675 479.314C577.575 478.457 577.412 477.608 577.186 476.775C577.117 476.498 577.047 476.222 576.978 475.947C576.91 475.671 576.843 475.395 576.782 475.119C576.726 474.86 576.673 474.599 576.629 474.337C576.591 474.116 576.558 473.894 576.534 473.671C576.512 473.008 576.401 472.352 576.205 471.718C576.022 471.307 575.792 470.919 575.52 470.56C575.404 470.394 575.291 470.228 575.187 470.055C574.888 469.607 574.749 469.071 574.792 468.534C574.805 468.451 574.825 468.37 574.852 468.29C574.863 468.26 574.874 468.229 574.887 468.2C575.002 468.169 575.108 468.11 575.195 468.029C575.282 467.947 575.348 467.846 575.387 467.734C575.431 467.492 575.41 467.243 575.327 467.012C575.231 466.689 575.101 466.378 574.937 466.084C574.829 465.89 574.465 465.54 574.462 465.317C574.457 464.87 575.332 464.51 575.686 464.334C576.767 463.793 577.973 463.549 579.18 463.627C579.953 463.679 580.792 463.916 581.219 464.564C581.603 465.148 581.552 465.904 581.715 466.582C581.733 466.68 581.774 466.773 581.837 466.851C581.92 466.927 582.025 466.975 582.137 466.989C582.327 467.027 582.521 467.034 582.713 467.012H582.714C582.765 467.008 582.815 467.001 582.865 466.99C583.164 466.935 583.446 466.814 583.691 466.634C583.85 466.592 584.009 466.557 584.17 466.531C584.177 466.53 584.183 466.529 584.19 466.527C584.83 468.546 584.913 470.71 585.438 472.767C585.697 473.79 586.069 474.8 586.122 475.852C586.126 475.898 586.127 475.945 586.128 475.992C586.136 476.331 586.109 476.672 586.123 477.009C586.128 477.161 586.145 477.312 586.174 477.461C586.232 477.701 586.303 477.937 586.388 478.169L586.392 478.18C586.416 478.254 586.439 478.33 586.458 478.405C586.472 478.46 586.485 478.513 586.495 478.568L586.496 478.572C586.591 479.136 586.605 479.711 586.539 480.28Z" fill="#FBBEBE"/>
<path d="M577.564 467.075C581.731 467.075 585.109 463.701 585.109 459.54C585.109 455.379 581.731 452.005 577.564 452.005C573.398 452.005 570.02 455.379 570.02 459.54C570.02 463.701 573.398 467.075 577.564 467.075Z" fill="#FBBEBE"/>
<path d="M625.463 500.593C625.244 498.537 624.513 496.569 623.335 494.869C623.531 496.031 623.727 497.193 623.924 498.354C623.679 498.425 623.42 498.423 623.177 498.348C622.934 498.273 622.718 498.13 622.555 497.934C622.238 497.538 621.995 497.087 621.838 496.605C620.981 494.48 619.86 492.47 618.502 490.624C613.699 490.224 608.951 488.236 604.727 485.918C600.502 483.601 596.549 480.824 592.38 478.409C591.657 477.973 590.904 477.588 590.127 477.259C588.823 476.737 587.358 476.466 586.122 475.852C586.039 475.811 585.956 475.768 585.874 475.723C585.595 475.571 585.33 475.394 585.084 475.193C584.95 475.085 584.824 474.969 584.705 474.846C584.088 474.129 583.599 473.312 583.259 472.43C582.595 470.963 582.359 469.195 581.696 467.729C582.001 467.444 582.343 467.203 582.713 467.012H582.714C582.768 466.984 582.822 466.957 582.877 466.932C583.139 466.808 583.411 466.709 583.691 466.634C583.85 466.592 584.009 466.558 584.171 466.531C584.177 466.53 584.184 466.529 584.19 466.527C584.937 466.405 585.702 466.466 586.421 466.703C587.472 467.058 588.358 467.767 589.242 468.437C590.678 469.447 592.054 470.538 593.366 471.704C594.095 472.401 594.76 473.168 595.544 473.801C596.195 474.303 596.882 474.758 597.598 475.161C601.84 477.685 606.082 480.208 610.324 482.73C611.76 483.585 613.198 484.439 614.602 485.343C616.735 486.717 618.791 488.207 620.846 489.694C622.057 490.57 623.267 491.447 624.477 492.324C624.874 492.577 625.223 492.899 625.507 493.274C625.757 493.7 625.913 494.175 625.963 494.667C626.267 496.654 626.096 498.685 625.463 500.593Z" fill="#FBBEBE"/>
<path d="M588.409 485.946C587.9 488.226 585.594 489.604 584.388 491.606C582.889 494.091 583.5 496.98 584.063 499.827C583.035 500.712 582.006 501.597 580.977 502.482C580.41 502.968 579.842 503.457 579.231 503.888C578.339 504.484 577.408 505.018 576.443 505.487C575.533 505.954 574.622 506.422 573.712 506.89C572.865 507.365 571.968 507.745 571.038 508.022C569.244 508.481 567.338 508.16 565.564 507.627C565.354 507.572 565.153 507.49 564.965 507.383C564.854 507.317 564.758 507.23 564.681 507.126C564.506 506.813 564.443 506.45 564.501 506.096C564.681 503.113 565.411 500.192 566.139 497.293C566.528 495.554 567.051 493.847 567.703 492.188C568.343 490.767 569.078 489.391 569.904 488.069C570.815 486.405 571.895 484.839 573.126 483.396C573.725 482.84 574.23 482.191 574.62 481.473C575.073 480.438 574.898 479.252 574.99 478.125C575.061 477.279 575.286 476.453 575.654 475.687V475.686C575.851 475.274 576.088 474.882 576.362 474.516C576.486 474.805 576.611 475.093 576.735 475.381C576.816 475.57 576.897 475.758 576.977 475.947C577.082 476.189 577.186 476.431 577.289 476.672C577.587 477.364 577.885 478.056 578.182 478.747C578.503 479.618 578.961 480.432 579.537 481.16C579.801 481.532 580.157 481.83 580.57 482.024C580.984 482.218 581.44 482.302 581.896 482.267C582.351 482.232 582.79 482.08 583.169 481.825C583.548 481.57 583.854 481.222 584.058 480.814C584.488 480.052 584.799 479.229 584.981 478.373C585.234 477.331 585.268 476.249 585.083 475.193C584.775 473.16 583.909 471.084 583.28 469.195C583.024 468.565 582.876 467.897 582.842 467.218C582.843 467.142 582.851 467.066 582.865 466.991C582.869 466.971 582.872 466.951 582.876 466.932C583.138 466.808 583.411 466.709 583.691 466.634C583.849 466.592 584.009 466.558 584.17 466.531C584.724 469.524 585.279 472.518 585.834 475.511C585.847 475.581 585.861 475.652 585.874 475.723C585.953 476.152 586.033 476.581 586.123 477.009C586.203 477.397 586.29 477.784 586.388 478.169L586.391 478.18C586.425 478.311 586.459 478.439 586.495 478.568L586.496 478.572C586.595 478.925 586.705 479.275 586.829 479.62C587.581 481.697 588.891 483.789 588.409 485.946Z" fill="#6C63FF"/>
<path d="M619.028 517.982C619.004 518.421 619.089 518.859 619.276 519.257C619.748 520.119 620.881 520.315 621.861 520.396C627.588 520.866 633.35 520.69 639.037 519.873C639.346 519.852 639.645 519.759 639.911 519.602C640.72 519.036 640.222 517.656 639.339 517.214C638.456 516.772 637.408 516.879 636.439 516.688C635.476 516.446 634.56 516.049 633.725 515.512C631.76 514.385 629.824 513.209 627.917 511.986C626.781 511.258 625.441 510.48 624.162 510.912C620.697 512.083 619.005 514.249 619.028 517.982Z" fill="#3F3D56"/>
<path d="M576.812 474.959V474.961C576.803 475.014 576.794 475.067 576.782 475.119C576.768 475.206 576.751 475.294 576.735 475.381C576.576 476.192 576.382 476.999 576.158 477.801C575.544 480.017 574.722 482.197 573.906 484.345C571.717 490.104 569.527 495.864 567.337 501.625C566.785 503.075 566.234 504.527 565.606 505.949C565.396 506.423 565.18 506.9 564.965 507.383C564.196 509.111 563.457 510.895 563.211 512.734C562.982 513.944 562.956 515.184 563.133 516.403C563.379 517.609 564.111 518.786 565.258 519.232C565.818 519.45 566.62 519.743 566.467 520.324C566.384 520.643 566.02 520.799 565.694 520.852C565.264 520.921 564.823 520.894 564.404 520.773C563.985 520.653 563.598 520.442 563.27 520.155C562.657 519.612 562.187 518.768 561.372 518.677C560.808 518.616 560.289 518.953 559.773 519.19C557.665 520.151 555.21 519.478 552.997 518.795C553.17 517.9 554.071 517.31 554.965 517.131C555.858 516.951 556.783 517.079 557.695 517.054C557.987 517.07 558.276 516.995 558.524 516.841C558.747 516.637 558.903 516.371 558.972 516.077C559.559 514.339 559.996 512.554 560.278 510.742C560.572 508.848 560.694 506.925 561.114 505.054C561.44 503.594 561.944 502.18 562.376 500.747C563.212 497.797 563.898 494.807 564.432 491.787C564.702 490.533 564.896 489.263 565.011 487.986C565.084 486.926 565.05 485.86 565.152 484.804C565.324 483.43 565.611 482.073 566.01 480.747C566.401 479.3 566.792 477.854 567.183 476.409C567.762 474.27 568.383 472.048 569.851 470.385C570.361 469.8 570.986 469.325 571.687 468.991C572.388 468.656 573.15 468.469 573.927 468.441C574.218 468.441 574.508 468.472 574.792 468.534C574.84 468.546 574.887 468.557 574.934 468.57C575.244 468.651 575.541 468.774 575.818 468.935C576.271 468.648 576.501 468.749 576.801 469.192C577.065 469.661 577.189 470.195 577.159 470.732C577.185 472.149 577.068 473.565 576.812 474.959Z" fill="#FBBEBE"/>
<path d="M577.309 476.653L577.29 476.672L577.186 476.775L576.158 477.801L575.654 475.687L573.927 468.441C574.218 468.441 574.508 468.472 574.792 468.534C574.805 468.451 574.825 468.37 574.853 468.291L574.934 468.57L575.52 470.56L576.629 474.337L576.812 474.959V474.961L577.309 476.653Z" fill="#6C63FF"/>
<path d="M583.833 453.536C583.832 454.207 583.699 454.871 583.441 455.49C583.183 456.11 582.805 456.673 582.329 457.146C582.157 457.319 581.972 457.478 581.776 457.624C580.894 458.288 579.819 458.648 578.714 458.648H572.579C571.224 458.646 569.924 458.107 568.966 457.149C568.009 456.191 567.471 454.892 567.471 453.538C567.471 452.184 568.009 450.886 568.966 449.928C569.924 448.97 571.224 448.431 572.579 448.428H578.714C580.07 448.432 581.369 448.971 582.328 449.928C583.287 450.885 583.828 452.182 583.833 453.536Z" fill="#2F2E41"/>
<path d="M589.585 453.921C592.48 453.921 594.827 451.577 594.827 448.685C594.827 445.793 592.48 443.449 589.585 443.449C586.689 443.449 584.342 445.793 584.342 448.685C584.342 451.577 586.689 453.921 589.585 453.921Z" fill="#2F2E41"/>
<path opacity="0.1" d="M589.456 443.449C589.392 443.449 589.328 443.451 589.265 443.454C590.621 443.503 591.905 444.076 592.847 445.051C593.789 446.027 594.316 447.329 594.316 448.685C594.316 450.04 593.789 451.343 592.847 452.318C591.905 453.294 590.621 453.867 589.265 453.916C589.328 453.918 589.392 453.921 589.456 453.921C590.847 453.921 592.18 453.369 593.164 452.387C594.147 451.405 594.699 450.073 594.699 448.685C594.699 447.296 594.147 445.964 593.164 444.982C592.18 444 590.847 443.449 589.456 443.449Z" fill="black"/>
<path opacity="0.1" d="M564.521 443.449C564.586 443.449 564.649 443.451 564.713 443.454C563.357 443.503 562.073 444.076 561.131 445.051C560.189 446.027 559.662 447.329 559.662 448.685C559.662 450.04 560.189 451.343 561.131 452.318C562.073 453.294 563.357 453.867 564.713 453.916C564.649 453.918 564.586 453.921 564.521 453.921C563.132 453.92 561.799 453.367 560.817 452.386C559.835 451.404 559.283 450.073 559.283 448.685C559.283 447.297 559.835 445.966 560.817 444.984C561.799 444.002 563.132 443.45 564.521 443.449Z" fill="black"/>
<path opacity="0.1" d="M581.776 457.624C580.894 458.288 579.819 458.647 578.714 458.648H572.579C571.474 458.647 570.4 458.288 569.517 457.624H581.776Z" fill="black"/>
<path d="M621.392 495.563C621.392 495.563 622.714 499.367 623.923 498.354L622.959 493.383L621.392 495.563Z" fill="#FBBEBE"/>
<path d="M782.228 611.554C783.459 612.001 784.777 612.157 786.078 612.008C787.38 611.859 788.629 611.411 789.727 610.698C790.825 609.985 791.742 609.027 792.407 607.9C793.071 606.772 793.464 605.506 793.555 604.201C793.646 602.896 793.432 601.588 792.93 600.379C792.428 599.171 791.652 598.096 790.663 597.238C789.674 596.38 788.499 595.764 787.23 595.437C785.962 595.11 784.635 595.082 783.354 595.355L783.566 599.702L781.506 595.976C779.485 596.925 777.923 598.636 777.164 600.734C776.895 601.469 776.731 602.238 776.678 603.019C776.548 604.851 777.019 606.675 778.021 608.215C779.022 609.755 780.499 610.928 782.228 611.554Z" fill="#57B894"/>
<path d="M792.419 661.979C791.691 658.282 794.842 655.004 797.954 652.873C801.066 650.742 804.702 648.649 805.763 645.033C807.289 639.837 802.744 635.078 799.206 630.974C796.582 627.928 794.328 624.582 792.491 621.007C791.755 619.573 791.079 618.075 790.885 616.475C790.606 614.172 791.347 611.879 792.094 609.682C794.581 602.363 797.24 595.105 800.07 587.908" stroke="#3F3D56" stroke-miterlimit="10"/>
<path d="M782.576 610.435C783.807 610.882 785.125 611.037 786.426 610.889C787.728 610.74 788.977 610.292 790.075 609.579C791.173 608.866 792.091 607.908 792.755 606.78C793.419 605.653 793.812 604.387 793.903 603.082C793.994 601.777 793.78 600.468 793.278 599.26C792.776 598.052 792 596.976 791.011 596.118C790.022 595.261 788.847 594.644 787.578 594.317C786.31 593.991 784.983 593.962 783.702 594.235L783.914 598.583L781.854 594.857C779.833 595.805 778.271 597.517 777.513 599.615C777.243 600.349 777.079 601.119 777.026 601.899C776.896 603.731 777.367 605.556 778.369 607.096C779.37 608.636 780.847 609.808 782.576 610.435V610.435Z" stroke="#3F3D56" stroke-miterlimit="10"/>
<path d="M791.385 586.407C791.868 585.076 792.679 583.887 793.742 582.951C794.806 582.015 796.089 581.361 797.472 581.051L798.169 585.184L799.46 580.843C801.252 580.869 802.99 581.464 804.422 582.541C805.854 583.619 806.906 585.122 807.427 586.836C807.947 588.549 807.909 590.383 807.318 592.074C806.726 593.764 805.612 595.223 804.137 596.24C802.661 597.256 800.9 597.778 799.108 597.731C797.316 597.683 795.585 597.067 794.166 595.973C792.747 594.879 791.713 593.362 791.213 591.643C790.713 589.924 790.773 588.09 791.385 586.407H791.385Z" fill="#57B894"/>
<path d="M791.849 584.914C792.333 583.583 793.143 582.395 794.207 581.459C795.271 580.523 796.554 579.869 797.937 579.558L798.633 583.691L799.924 579.35C801.717 579.377 803.455 579.972 804.887 581.049C806.319 582.126 807.371 583.63 807.891 585.343C808.412 587.057 808.374 588.891 807.782 590.581C807.191 592.271 806.077 593.73 804.602 594.747C803.126 595.764 801.365 596.286 799.573 596.238C797.781 596.19 796.05 595.575 794.631 594.48C793.212 593.386 792.178 591.87 791.678 590.151C791.178 588.431 791.238 586.598 791.849 584.914H791.849Z" stroke="#3F3D56" stroke-miterlimit="10"/>
<path d="M797.722 631.058C799.674 631.765 801.819 631.73 803.747 630.959C805.675 630.189 807.252 628.737 808.177 626.88C809.102 625.023 809.311 622.891 808.763 620.89C808.215 618.89 806.949 617.16 805.207 616.032L804.215 619.367L803.512 615.186C803.505 615.182 803.497 615.18 803.49 615.177C802.446 614.798 801.337 614.629 800.227 614.678C799.117 614.727 798.028 614.994 797.021 615.464C796.015 615.933 795.111 616.596 794.361 617.415C793.611 618.234 793.03 619.192 792.651 620.235C792.272 621.279 792.103 622.386 792.153 623.494C792.202 624.603 792.47 625.691 792.941 626.696C793.412 627.701 794.077 628.603 794.897 629.352C795.717 630.1 796.677 630.68 797.722 631.058H797.722Z" fill="#57B894"/>
<path d="M798.124 629.546C800.077 630.253 802.221 630.218 804.149 629.448C806.078 628.677 807.654 627.225 808.58 625.368C809.505 623.511 809.713 621.379 809.165 619.378C808.618 617.378 807.352 615.648 805.609 614.52L804.617 617.856L803.914 613.674C803.907 613.671 803.9 613.668 803.892 613.666C802.848 613.287 801.739 613.117 800.629 613.166C799.519 613.215 798.43 613.482 797.423 613.952C796.417 614.422 795.513 615.085 794.763 615.904C794.013 616.722 793.432 617.681 793.053 618.724C792.674 619.767 792.505 620.874 792.555 621.983C792.605 623.091 792.873 624.179 793.344 625.184C793.815 626.189 794.479 627.092 795.299 627.84C796.12 628.588 797.08 629.168 798.124 629.546H798.124Z" stroke="#3F3D56" stroke-miterlimit="10"/>
<path d="M788.917 645.085C789.252 646.993 790.234 648.727 791.699 649.997C793.163 651.267 795.019 651.996 796.958 652.061C798.896 652.126 800.798 651.524 802.344 650.355C803.89 649.186 804.987 647.522 805.451 645.641C805.914 643.76 805.716 641.778 804.889 640.026C804.063 638.273 802.658 636.858 800.911 636.018C799.164 635.177 797.18 634.962 795.293 635.409C793.406 635.855 791.73 636.936 790.546 638.471L794.315 644.135L789.166 641.129C788.767 642.408 788.681 643.765 788.917 645.085Z" fill="#57B894"/>
<path d="M789.265 643.966C789.601 645.873 790.583 647.608 792.047 648.878C793.511 650.148 795.368 650.877 797.306 650.942C799.244 651.007 801.146 650.405 802.692 649.236C804.239 648.067 805.336 646.402 805.799 644.522C806.262 642.641 806.064 640.658 805.238 638.906C804.411 637.154 803.007 635.739 801.259 634.899C799.512 634.058 797.529 633.843 795.642 634.289C793.755 634.736 792.079 635.817 790.895 637.351L794.663 643.016L789.514 640.009C789.115 641.289 789.03 642.646 789.265 643.966V643.966Z" stroke="#3F3D56" stroke-miterlimit="10"/>
<path d="M376.72 632.131C377.529 632.424 378.395 632.526 379.25 632.429C380.105 632.331 380.926 632.037 381.647 631.568C382.369 631.1 382.972 630.47 383.408 629.73C383.845 628.989 384.103 628.157 384.162 627.299C384.222 626.442 384.081 625.582 383.752 624.789C383.422 623.995 382.912 623.288 382.262 622.725C381.612 622.161 380.84 621.756 380.007 621.541C379.174 621.326 378.302 621.308 377.46 621.487L377.599 624.344L376.246 621.896C374.918 622.519 373.892 623.643 373.394 625.022C373.217 625.504 373.109 626.01 373.074 626.523C372.989 627.726 373.298 628.925 373.956 629.937C374.614 630.949 375.585 631.719 376.72 632.131Z" fill="#57B894"/>
<path d="M383.416 665.261C382.938 662.832 385.008 660.678 387.053 659.278C389.097 657.878 391.486 656.503 392.184 654.127C393.186 650.713 390.2 647.586 387.876 644.89C386.151 642.889 384.67 640.691 383.464 638.341C382.939 637.419 382.582 636.411 382.409 635.364C382.225 633.851 382.712 632.345 383.203 630.901C384.837 626.092 386.583 621.323 388.443 616.595" stroke="#3F3D56" stroke-miterlimit="10"/>
<path d="M376.949 631.395C377.758 631.689 378.624 631.791 379.479 631.693C380.334 631.596 381.155 631.301 381.876 630.833C382.598 630.364 383.201 629.735 383.637 628.994C384.074 628.253 384.332 627.421 384.391 626.564C384.451 625.707 384.31 624.847 383.981 624.053C383.651 623.259 383.141 622.553 382.491 621.989C381.841 621.426 381.069 621.021 380.236 620.806C379.403 620.591 378.531 620.573 377.689 620.752L377.828 623.608L376.475 621.16C375.147 621.784 374.121 622.908 373.623 624.286C373.446 624.769 373.338 625.274 373.303 625.787C373.218 626.991 373.527 628.19 374.185 629.202C374.843 630.214 375.814 630.984 376.949 631.395V631.395Z" stroke="#3F3D56" stroke-miterlimit="10"/>
<path d="M382.737 615.609C383.054 614.734 383.587 613.953 384.286 613.338C384.985 612.723 385.828 612.294 386.737 612.089L387.194 614.805L388.042 611.953C389.22 611.97 390.362 612.361 391.303 613.069C392.244 613.777 392.935 614.765 393.277 615.89C393.619 617.016 393.594 618.221 393.205 619.332C392.817 620.442 392.085 621.401 391.115 622.069C390.146 622.737 388.989 623.08 387.811 623.048C386.634 623.017 385.497 622.613 384.565 621.894C383.632 621.175 382.953 620.179 382.624 619.049C382.296 617.919 382.335 616.714 382.737 615.609Z" fill="#57B894"/>
<path d="M383.042 614.628C383.36 613.753 383.892 612.972 384.591 612.357C385.29 611.742 386.133 611.313 387.042 611.109L387.499 613.824L388.348 610.972C389.525 610.99 390.667 611.38 391.608 612.088C392.549 612.796 393.24 613.784 393.582 614.91C393.924 616.035 393.899 617.24 393.51 618.351C393.122 619.462 392.39 620.42 391.421 621.088C390.451 621.756 389.294 622.099 388.117 622.068C386.939 622.036 385.802 621.632 384.87 620.913C383.937 620.194 383.258 619.198 382.929 618.068C382.601 616.938 382.64 615.734 383.042 614.628V614.628Z" stroke="#3F3D56" stroke-miterlimit="10"/>
<path d="M386.901 644.945C388.183 645.41 389.592 645.387 390.859 644.88C392.126 644.374 393.162 643.42 393.77 642.2C394.378 640.98 394.515 639.579 394.155 638.265C393.795 636.95 392.963 635.814 391.818 635.073L391.167 637.264L390.704 634.517C390.7 634.515 390.695 634.513 390.69 634.511C390.004 634.262 389.276 634.15 388.546 634.183C387.817 634.215 387.101 634.39 386.44 634.699C385.778 635.007 385.184 635.443 384.691 635.981C384.199 636.519 383.817 637.149 383.568 637.834C383.319 638.52 383.208 639.247 383.24 639.976C383.273 640.704 383.449 641.419 383.759 642.079C384.068 642.74 384.505 643.333 385.044 643.824C385.583 644.316 386.214 644.697 386.901 644.945Z" fill="#57B894"/>
<path d="M387.165 643.952C388.447 644.416 389.856 644.393 391.123 643.887C392.39 643.381 393.426 642.427 394.034 641.207C394.642 639.987 394.779 638.586 394.419 637.272C394.059 635.957 393.227 634.821 392.082 634.079L391.431 636.271L390.968 633.524C390.964 633.521 390.959 633.52 390.954 633.518C390.268 633.27 389.54 633.159 388.811 633.191C388.082 633.224 387.367 633.399 386.706 633.708C385.371 634.331 384.339 635.459 383.836 636.843C383.333 638.226 383.402 639.752 384.026 641.086C384.65 642.419 385.779 643.45 387.165 643.952V643.952Z" stroke="#3F3D56" stroke-miterlimit="10"/>
<path d="M381.115 654.161C381.336 655.414 381.981 656.554 382.943 657.388C383.905 658.223 385.125 658.702 386.398 658.745C387.672 658.787 388.921 658.392 389.937 657.624C390.953 656.856 391.674 655.762 391.978 654.526C392.283 653.291 392.153 651.988 391.609 650.837C391.066 649.686 390.144 648.756 388.996 648.204C387.848 647.652 386.545 647.51 385.305 647.804C384.065 648.097 382.964 648.807 382.186 649.815L384.662 653.537L381.279 651.562C381.017 652.403 380.96 653.294 381.115 654.161Z" fill="#57B894"/>
<path d="M381.344 653.426C381.565 654.679 382.21 655.818 383.172 656.653C384.134 657.487 385.354 657.966 386.627 658.009C387.901 658.052 389.15 657.656 390.166 656.888C391.182 656.12 391.903 655.027 392.207 653.791C392.512 652.555 392.382 651.253 391.838 650.101C391.295 648.95 390.373 648.021 389.225 647.468C388.077 646.916 386.774 646.775 385.534 647.068C384.294 647.362 383.193 648.072 382.415 649.08L384.891 652.801L381.508 650.826C381.246 651.667 381.189 652.559 381.344 653.426V653.426Z" stroke="#3F3D56" stroke-miterlimit="10"/>
<path d="M568.506 579.721C572.322 579.721 575.415 575.724 575.415 570.793C575.415 565.861 572.322 561.864 568.506 561.864C564.691 561.864 561.598 565.861 561.598 570.793C561.598 575.724 564.691 579.721 568.506 579.721Z" fill="#2F2E41"/>
<path d="M606.096 579.924C609.911 579.924 613.004 575.927 613.004 570.995C613.004 566.064 609.911 562.067 606.096 562.067C602.281 562.067 599.188 566.064 599.188 570.995C599.188 575.927 602.281 579.924 606.096 579.924Z" fill="#2F2E41"/>
<path d="M600.813 597.376C600.813 601.41 595.173 604.681 588.215 604.681C581.258 604.681 575.618 601.41 575.618 597.376C575.618 593.882 579.848 590.959 585.501 590.245C586.401 590.127 587.308 590.068 588.215 590.071C589.736 590.066 591.253 590.229 592.738 590.558C597.461 591.609 600.813 594.267 600.813 597.376Z" fill="#2F2E41"/>
<path d="M570.132 577.692C573.947 577.692 577.04 573.695 577.04 568.763C577.04 563.832 573.947 559.834 570.132 559.834C566.316 559.834 563.223 563.832 563.223 568.763C563.223 573.695 566.316 577.692 570.132 577.692Z" stroke="#3F3D56" stroke-miterlimit="10"/>
<path d="M607.721 577.895C611.537 577.895 614.63 573.897 614.63 568.966C614.63 564.035 611.537 560.037 607.721 560.037C603.906 560.037 600.813 564.035 600.813 568.966C600.813 573.897 603.906 577.895 607.721 577.895Z" stroke="#3F3D56" stroke-miterlimit="10"/>
<path d="M589.841 602.652C596.798 602.652 602.439 599.382 602.439 595.347C602.439 591.312 596.798 588.042 589.841 588.042C582.883 588.042 577.243 591.312 577.243 595.347C577.243 599.382 582.883 602.652 589.841 602.652Z" stroke="#3F3D56" stroke-miterlimit="10"/>
<path d="M592.889 591.167C592.892 591.677 592.7 592.169 592.352 592.543C592.188 592.722 591.988 592.866 591.766 592.964C591.543 593.062 591.303 593.114 591.06 593.115H586.996C586.495 593.097 586.022 592.883 585.679 592.517C585.336 592.152 585.152 591.667 585.167 591.167C585.165 590.771 585.281 590.383 585.501 590.054C586.4 589.928 587.307 589.865 588.215 589.868C589.738 589.863 591.256 590.037 592.738 590.387C592.838 590.635 592.89 590.899 592.889 591.167Z" fill="white"/>
<path d="M570.132 568.357C571.254 568.357 572.163 567.449 572.163 566.328C572.163 565.207 571.254 564.299 570.132 564.299C569.009 564.299 568.1 565.207 568.1 566.328C568.1 567.449 569.009 568.357 570.132 568.357Z" fill="white"/>
<path d="M607.925 568.357C609.047 568.357 609.957 567.449 609.957 566.328C609.957 565.207 609.047 564.299 607.925 564.299C606.803 564.299 605.893 565.207 605.893 566.328C605.893 567.449 606.803 568.357 607.925 568.357Z" fill="white"/>
<path opacity="0.3" d="M609.957 587.433C611.079 587.433 611.989 586.524 611.989 585.403C611.989 584.283 611.079 583.374 609.957 583.374C608.835 583.374 607.925 584.283 607.925 585.403C607.925 586.524 608.835 587.433 609.957 587.433Z" fill="#6C63FF"/>
<path opacity="0.3" d="M560.379 587.433C561.501 587.433 562.41 586.524 562.41 585.403C562.41 584.283 561.501 583.374 560.379 583.374C559.256 583.374 558.347 584.283 558.347 585.403C558.347 586.524 559.256 587.433 560.379 587.433Z" fill="#6C63FF"/>
</g>
</g>
<defs>
<clipPath id="clip0">
<rect width="1108" height="769" fill="white"/>
</clipPath>
<clipPath id="clip1">
<rect width="436.61" height="237.113" fill="white" transform="translate(373.06 441.278)"/>
</clipPath>
</defs>
</svg>
