<svg width="27" height="27" viewBox="0 0 27 27" fill="none" xmlns="http://www.w3.org/2000/svg">
<path d="M1.45833 14.5833H10.2083C10.5951 14.5833 10.966 14.4297 11.2395 14.1562C11.513 13.8827 11.6667 13.5118 11.6667 13.125V1.45833C11.6667 1.07156 11.513 0.700626 11.2395 0.427136C10.966 0.153645 10.5951 0 10.2083 0H1.45833C1.07156 0 0.700626 0.153645 0.427136 0.427136C0.153645 0.700626 0 1.07156 0 1.45833V13.125C0 13.5118 0.153645 13.8827 0.427136 14.1562C0.700626 14.4297 1.07156 14.5833 1.45833 14.5833ZM0 24.7917C0 25.1784 0.153645 25.5494 0.427136 25.8229C0.700626 26.0964 1.07156 26.25 1.45833 26.25H10.2083C10.5951 26.25 10.966 26.0964 11.2395 25.8229C11.513 25.5494 11.6667 25.1784 11.6667 24.7917V18.9583C11.6667 18.5716 11.513 18.2006 11.2395 17.9271C10.966 17.6536 10.5951 17.5 10.2083 17.5H1.45833C1.07156 17.5 0.700626 17.6536 0.427136 17.9271C0.153645 18.2006 0 18.5716 0 18.9583V24.7917ZM14.5833 24.7917C14.5833 25.1784 14.737 25.5494 15.0105 25.8229C15.284 26.0964 15.6549 26.25 16.0417 26.25H24.7917C25.1784 26.25 25.5494 26.0964 25.8229 25.8229C26.0964 25.5494 26.25 25.1784 26.25 24.7917V14.5833C26.25 14.1966 26.0964 13.8256 25.8229 13.5521C25.5494 13.2786 25.1784 13.125 24.7917 13.125H16.0417C15.6549 13.125 15.284 13.2786 15.0105 13.5521C14.737 13.8256 14.5833 14.1966 14.5833 14.5833V24.7917ZM16.0417 10.2083H24.7917C25.1784 10.2083 25.5494 10.0547 25.8229 9.7812C26.0964 9.50771 26.25 9.13677 26.25 8.75V1.45833C26.25 1.07156 26.0964 0.700626 25.8229 0.427136C25.5494 0.153645 25.1784 0 24.7917 0H16.0417C15.6549 0 15.284 0.153645 15.0105 0.427136C14.737 0.700626 14.5833 1.07156 14.5833 1.45833V8.75C14.5833 9.13677 14.737 9.50771 15.0105 9.7812C15.284 10.0547 15.6549 10.2083 16.0417 10.2083Z" fill="black"/>
</svg>
