<svg width="35" height="35" viewBox="0 0 35 35" fill="none" xmlns="http://www.w3.org/2000/svg">
<path d="M17.5 0C7.84337 0 0 7.84337 0 17.5C0 27.1566 7.84337 35 17.5 35C27.1566 35 35 27.1566 35 17.5C35 7.84337 27.1566 0 17.5 0ZM17.5 33.4819C8.68675 33.4819 1.51807 26.3133 1.51807 17.5C1.51807 8.68675 8.68675 1.51807 17.5 1.51807C26.3133 1.51807 33.4819 8.68675 33.4819 17.5C33.4819 26.3133 26.3133 33.4819 17.5 33.4819Z" fill="black"/>
<path d="M26.6085 13.7051H21.2952V8.39185C21.2952 7.97016 20.9579 7.63281 20.5362 7.63281H14.4639C14.0422 7.63281 13.7049 7.97016 13.7049 8.39185V13.7051H8.3916C7.96992 13.7051 7.63257 14.0425 7.63257 14.4641V20.5364C7.63257 20.9581 7.96992 21.2955 8.3916 21.2955H13.7049V26.6087C13.7049 27.0304 14.0422 27.3678 14.4639 27.3678H20.5362C20.9579 27.3678 21.2952 27.0304 21.2952 26.6087V21.2955H26.6085C27.0302 21.2955 27.3675 20.9581 27.3675 20.5364V14.4641C27.3253 14.0425 26.988 13.7051 26.6085 13.7051ZM25.8916 19.7774H25.8494H20.5362C20.1145 19.7774 19.7771 20.1147 19.7771 20.5364V25.8497H15.2229V20.5364C15.2229 20.1147 14.8856 19.7774 14.4639 19.7774H9.15064V15.2232H14.4639C14.8856 15.2232 15.2229 14.8858 15.2229 14.4641V9.15089H19.8193V14.4641C19.8193 14.8858 20.1567 15.2232 20.5784 15.2232H25.8916V19.7774Z" fill="black"/>
</svg>
